<svg width="48" height="48" viewBox="0 0 48 48" fill="none" xmlns="http://www.w3.org/2000/svg">
<rect x="34" y="6" width="9" height="22" stroke="white" stroke-width="2"/>
<path d="M19.5586 42.2539L20.2657 42.961L20.2657 42.961L19.5586 42.2539ZM14.6283 39.0792L15.5646 39.4303L15.5646 39.4303L14.6283 39.0792ZM33.7651 28.0474L33.7651 27.0474C33.4999 27.0474 33.2455 27.1527 33.058 27.3403L33.7651 28.0474ZM34 28.0474L34 29.0474C34.2652 29.0474 34.5196 28.942 34.7071 28.7545C34.8946 28.567 35 28.3126 35 28.0474L34 28.0474ZM34 6.00003L35 6.00003C35 5.44774 34.5523 5.00003 34 5.00003L34 6.00003ZM8.56118 10.4245L9.52609 10.6871L8.56118 10.4245ZM5.13967 22.997L4.17477 22.7344L5.13967 22.997ZM8.9993 28.0474L8.9993 29.0474L8.9993 28.0474ZM18.7652 28.0474L19.7015 28.3985C19.8167 28.0914 19.7739 27.7474 19.5871 27.4778C19.4003 27.2082 19.0932 27.0474 18.7652 27.0474L18.7652 28.0474ZM18.8515 41.5468C17.3306 43.0677 14.8094 41.4442 15.5646 39.4303L13.6919 38.7281C12.1815 42.756 17.2239 46.0028 20.2657 42.961L18.8515 41.5468ZM33.058 27.3403L18.8515 41.5468L20.2657 42.961L34.4722 28.7545L33.058 27.3403ZM34 27.0474L33.7651 27.0474L33.7651 29.0474L34 29.0474L34 27.0474ZM33 6.00003L33 28.0474L35 28.0474L35 6.00003L33 6.00003ZM14.3506 7.00002L34 7.00003L34 5.00003L14.3506 5.00002L14.3506 7.00002ZM9.52609 10.6871C10.1184 8.51046 12.0949 7.00002 14.3506 7.00002L14.3506 5.00002C11.1926 5.00002 8.42556 7.11464 7.59628 10.1619L9.52609 10.6871ZM6.10458 23.2596L9.52609 10.6871L7.59628 10.1619L4.17477 22.7344L6.10458 23.2596ZM8.9993 27.0474C7.02186 27.0474 5.58532 25.1677 6.10458 23.2596L4.17477 22.7344C3.30934 25.9145 5.70357 29.0474 8.9993 29.0474L8.9993 27.0474ZM18.7652 27.0474L8.9993 27.0474L8.9993 29.0474L18.7652 29.0474L18.7652 27.0474ZM15.5646 39.4303L19.7015 28.3985L17.8289 27.6963L13.6919 38.7281L15.5646 39.4303Z" fill="white"/>
</svg>
