<svg width="48" height="48" viewBox="0 0 48 48" fill="none" xmlns="http://www.w3.org/2000/svg">
<mask id="path-1-inside-1_217_186" fill="white">
<path d="M40 20V42H28V30H20V42H8V20L24 6L40 20Z"/>
</mask>
<path d="M40 20H42V19.0925L41.317 18.4948L40 20ZM40 42V44H42V42H40ZM28 42H26V44H28V42ZM28 30H30V28H28V30ZM20 30V28H18V30H20ZM20 42V44H22V42H20ZM8 42H6V44H8V42ZM8 20L6.68299 18.4948L6 19.0925V20H8ZM24 6L25.317 4.49485L24 3.34246L22.683 4.49485L24 6ZM40 20H38V42H40H42V20H40ZM40 42V40H28V42V44H40V42ZM28 42H30V30H28H26V42H28ZM28 30V28H20V30V32H28V30ZM20 30H18V42H20H22V30H20ZM20 42V40H8V42V44H20V42ZM8 42H10V20H8H6V42H8ZM8 20L9.31701 21.5052L25.317 7.50515L24 6L22.683 4.49485L6.68299 18.4948L8 20ZM24 6L22.683 7.50515L38.683 21.5052L40 20L41.317 18.4948L25.317 4.49485L24 6Z" fill="white" mask="url(#path-1-inside-1_217_186)"/>
</svg>
