<svg width="24" height="24" viewBox="0 0 24 24" fill="none" xmlns="http://www.w3.org/2000/svg">
<rect x="5" y="5" width="14" height="14" fill="white"/>
<path d="M12 1C11.6181 1 11.2368 1.09798 10.8946 1.29433L3.10535 5.76936C2.42114 6.16205 2 6.88904 2 7.67496V16.625C2 17.411 2.42114 18.1369 3.10535 18.5296L10.8946 23.0057C11.2368 23.202 11.6181 23.3 12 23.3C12.3819 23.3 12.7632 23.202 13.1054 23.0057L20.8946 18.5306C21.5789 18.138 22 17.411 22 16.625V7.67496C22 6.88904 21.5789 6.1626 20.8946 5.76936L13.1054 1.29433C12.7632 1.09798 12.3819 1 12 1ZM11.7927 4.63718C12.0866 4.63718 12.3803 4.71463 12.6423 4.87027L17.5473 7.7856C18.0458 8.08204 18.3558 8.62497 18.3558 9.20245V15.0976C18.3558 15.675 18.0458 16.218 17.5473 16.5144L12.6423 19.4297C12.3798 19.5854 12.0862 19.6628 11.7927 19.6628C11.4987 19.6628 11.2057 19.5854 10.9432 19.4297L6.03821 16.5144C5.5397 16.218 5.22971 15.675 5.22971 15.0976V9.20245C5.22971 8.62497 5.5397 8.08204 6.03821 7.7856L10.9432 4.87027C11.2057 4.71463 11.4989 4.63718 11.7927 4.63718ZM10.5 7.58864C10.5527 7.69113 10.3368 7.7856 10 7.7856L9 8.85012C8.83364 8.94911 9 10.4376 9 10.6295V13.6705C9 13.8629 9.3342 15.9016 9.5 16L10.5 16.7114C10.5 16.7114 12.8663 15.0976 13 15.1909L13.5 14.1773C13.6664 14.0783 15.5 12.8488 15.5 12.6568L15.6839 11.3489C14 10.1227 15 9.53416 13.5 9.53416L11.1839 8.72981C11.0966 8.67811 10.5955 7.7856 10.5 7.58864ZM9.65112 8.85012L15.3161 12.15L9.65112 16V8.85012Z" fill="white"/>
<path d="M12 2.2688C11.6683 2.2688 11.3371 2.35431 11.04 2.52567L4.275 6.4313C3.68076 6.77402 3.315 7.4085 3.315 8.09442V15.9057C3.315 16.5916 3.68076 17.2251 4.275 17.5679L11.04 21.4744C11.3371 21.6458 11.6683 21.7313 12 21.7313C12.3317 21.7313 12.6629 21.6458 12.96 21.4744L19.725 17.5688C20.3192 17.2261 20.685 16.5916 20.685 15.9057V8.09442C20.685 7.4085 20.3192 6.7745 19.725 6.4313L12.96 2.52567C12.6629 2.35431 12.3317 2.2688 12 2.2688ZM11.82 5.44317C12.0752 5.44317 12.3303 5.51077 12.5578 5.64661L16.8178 8.19099C17.2508 8.44971 17.52 8.92355 17.52 9.42755V14.5725C17.52 15.0765 17.2508 15.5504 16.8178 15.8091L12.5578 18.3535C12.3298 18.4893 12.0749 18.5569 11.82 18.5569C11.5646 18.5569 11.3102 18.4893 11.0822 18.3535L6.82219 15.8091C6.38923 15.5504 6.12 15.0765 6.12 14.5725V9.42755C6.12 8.92355 6.38923 8.44971 6.82219 8.19099L11.0822 5.64661C11.3102 5.51077 11.5648 5.44317 11.82 5.44317ZM11.82 6.40224C11.7346 6.40224 11.6498 6.42555 11.5734 6.47067L7.31344 9.01505C7.16896 9.10145 7.08 9.25909 7.08 9.42661V14.5725C7.08 14.7405 7.16944 14.8991 7.31344 14.985L11.5734 17.5294C11.7251 17.6197 11.9139 17.6197 12.0656 17.5294L16.3256 14.985C16.4701 14.8986 16.5591 14.7401 16.5591 14.5725V9.42755C16.5595 9.25955 16.4706 9.10145 16.3266 9.01505L12.0666 6.47067C11.9907 6.42555 11.9054 6.40224 11.82 6.40224ZM9.96 9.12005L14.88 12L9.96 14.88V9.12005Z" fill="black"/>
</svg>
