<svg width="48" height="48" viewBox="0 0 48 48" fill="none" xmlns="http://www.w3.org/2000/svg">
<g clip-path="url(#clip0_215_119)">
<path d="M5 24C5 18.9609 7.00178 14.1282 10.565 10.565C14.1282 7.00178 18.9609 5 24 5C29.0391 5 33.8718 7.00178 37.435 10.565C40.9982 14.1282 43 18.9609 43 24C43 29.0391 40.9982 33.8718 37.435 37.435C33.8718 40.9982 29.0391 43 24 43C18.9609 43 14.1282 40.9982 10.565 37.435C7.00178 33.8718 5 29.0391 5 24L5 24Z" stroke="white" stroke-width="2"/>
<circle cx="24" cy="17" r="8" stroke="white" stroke-width="2"/>
<path d="M38 37C37.2385 35.2312 36.1223 33.624 34.7151 32.2702C33.308 30.9164 31.6375 29.8425 29.799 29.1098C27.9605 28.3771 25.99 28 24 28C22.01 28 20.0395 28.3771 18.201 29.1098C16.3625 29.8425 14.692 30.9164 13.2849 32.2702C11.8777 33.624 10.7615 35.2312 10 37" stroke="white" stroke-width="2"/>
</g>
<defs>
<clipPath id="clip0_215_119">
<rect width="48" height="48" fill="white"/>
</clipPath>
</defs>
</svg>
